<svg xmlns="http://www.w3.org/2000/svg" xmlns:xlink="http://www.w3.org/1999/xlink" width="200" zoomAndPan="magnify" viewBox="0 0 150 149.999998" height="200" preserveAspectRatio="xMidYMid meet" version="1.0"><rect x="-15" width="180" fill="#ffffff" y="-15" height="179.999997" fill-opacity="1"/><rect x="-15" width="180" fill="#ffffff" y="-15" height="179.999997" fill-opacity="1"/><path fill="#e07b39" d="M 74.433594 22.695312 C 49.214844 22.695312 29.929688 42 29.929688 67.246094 C 29.929688 99.914062 74.433594 141.496094 74.433594 141.496094 C 74.433594 141.496094 118.9375 99.914062 118.9375 67.246094 C 118.9375 42 99.652344 22.695312 74.433594 22.695312 Z M 74.433594 50.910156 C 74.078125 50.910156 73.722656 50.921875 73.367188 50.945312 C 73.011719 50.96875 72.65625 51.003906 72.304688 51.050781 C 71.949219 51.09375 71.597656 51.152344 71.25 51.222656 C 70.902344 51.292969 70.554688 51.375 70.210938 51.464844 C 69.867188 51.558594 69.523438 51.660156 69.1875 51.777344 C 68.851562 51.890625 68.519531 52.015625 68.1875 52.152344 C 67.859375 52.289062 67.535156 52.4375 67.214844 52.59375 C 66.898438 52.75 66.582031 52.917969 66.273438 53.097656 C 65.964844 53.277344 65.664062 53.464844 65.367188 53.664062 C 65.070312 53.859375 64.78125 54.066406 64.5 54.285156 C 64.21875 54.503906 63.941406 54.726562 63.675781 54.964844 C 63.40625 55.199219 63.148438 55.441406 62.894531 55.695312 C 62.644531 55.945312 62.398438 56.207031 62.164062 56.472656 C 61.929688 56.742188 61.703125 57.019531 61.488281 57.300781 C 61.269531 57.582031 61.0625 57.871094 60.867188 58.167969 C 60.667969 58.464844 60.480469 58.769531 60.300781 59.078125 C 60.125 59.386719 59.957031 59.699219 59.796875 60.019531 C 59.640625 60.339844 59.496094 60.664062 59.359375 60.992188 C 59.222656 61.324219 59.097656 61.65625 58.980469 61.992188 C 58.867188 62.332031 58.765625 62.671875 58.671875 63.015625 C 58.578125 63.359375 58.5 63.707031 58.429688 64.058594 C 58.359375 64.40625 58.300781 64.757812 58.253906 65.113281 C 58.210938 65.464844 58.175781 65.820312 58.152344 66.175781 C 58.128906 66.53125 58.117188 66.886719 58.117188 67.246094 C 58.117188 67.601562 58.128906 67.957031 58.152344 68.3125 C 58.175781 68.667969 58.210938 69.023438 58.253906 69.375 C 58.300781 69.730469 58.359375 70.082031 58.429688 70.429688 C 58.5 70.78125 58.578125 71.128906 58.671875 71.472656 C 58.765625 71.816406 58.867188 72.15625 58.980469 72.496094 C 59.097656 72.832031 59.222656 73.167969 59.359375 73.496094 C 59.496094 73.824219 59.640625 74.148438 59.800781 74.46875 C 59.957031 74.789062 60.125 75.101562 60.300781 75.410156 C 60.480469 75.71875 60.667969 76.023438 60.867188 76.320312 C 61.0625 76.617188 61.269531 76.90625 61.488281 77.1875 C 61.703125 77.472656 61.929688 77.746094 62.164062 78.015625 C 62.398438 78.28125 62.644531 78.542969 62.894531 78.792969 C 63.148438 79.046875 63.40625 79.289062 63.675781 79.527344 C 63.941406 79.761719 64.21875 79.988281 64.5 80.203125 C 64.78125 80.421875 65.070312 80.628906 65.367188 80.828125 C 65.664062 81.023438 65.964844 81.210938 66.273438 81.390625 C 66.582031 81.570312 66.898438 81.738281 67.214844 81.894531 C 67.535156 82.050781 67.859375 82.199219 68.1875 82.335938 C 68.519531 82.472656 68.851562 82.597656 69.1875 82.710938 C 69.527344 82.828125 69.867188 82.929688 70.210938 83.023438 C 70.554688 83.113281 70.902344 83.195312 71.25 83.265625 C 71.601562 83.335938 71.949219 83.394531 72.304688 83.4375 C 72.65625 83.484375 73.011719 83.519531 73.367188 83.542969 C 73.722656 83.566406 74.078125 83.578125 74.433594 83.578125 C 74.789062 83.578125 75.144531 83.566406 75.5 83.542969 C 75.855469 83.519531 76.210938 83.484375 76.5625 83.4375 C 76.917969 83.394531 77.269531 83.335938 77.617188 83.265625 C 77.964844 83.195312 78.3125 83.113281 78.65625 83.023438 C 79 82.929688 79.34375 82.828125 79.679688 82.710938 C 80.015625 82.597656 80.347656 82.472656 80.679688 82.335938 C 81.007812 82.199219 81.332031 82.050781 81.652344 81.894531 C 81.96875 81.738281 82.285156 81.570312 82.59375 81.390625 C 82.902344 81.210938 83.203125 81.023438 83.5 80.828125 C 83.796875 80.628906 84.085938 80.421875 84.367188 80.203125 C 84.648438 79.988281 84.925781 79.761719 85.191406 79.527344 C 85.460938 79.289062 85.71875 79.046875 85.972656 78.792969 C 86.222656 78.542969 86.46875 78.28125 86.703125 78.015625 C 86.9375 77.746094 87.164062 77.472656 87.378906 77.1875 C 87.597656 76.90625 87.804688 76.617188 88 76.320312 C 88.199219 76.023438 88.386719 75.71875 88.566406 75.410156 C 88.742188 75.101562 88.910156 74.789062 89.070312 74.46875 C 89.226562 74.148438 89.375 73.824219 89.507812 73.496094 C 89.644531 73.167969 89.769531 72.832031 89.886719 72.496094 C 90 72.15625 90.105469 71.816406 90.195312 71.472656 C 90.289062 71.128906 90.367188 70.78125 90.4375 70.429688 C 90.507812 70.082031 90.566406 69.730469 90.613281 69.375 C 90.660156 69.023438 90.695312 68.667969 90.71875 68.3125 C 90.738281 67.957031 90.75 67.601562 90.75 67.246094 C 90.75 66.886719 90.738281 66.53125 90.71875 66.175781 C 90.695312 65.820312 90.660156 65.464844 90.613281 65.113281 C 90.566406 64.757812 90.507812 64.40625 90.4375 64.058594 C 90.367188 63.707031 90.289062 63.359375 90.195312 63.015625 C 90.105469 62.671875 90 62.332031 89.886719 61.992188 C 89.773438 61.65625 89.644531 61.324219 89.511719 60.992188 C 89.375 60.664062 89.226562 60.339844 89.070312 60.019531 C 88.910156 59.699219 88.742188 59.386719 88.566406 59.078125 C 88.386719 58.769531 88.199219 58.464844 88.003906 58.167969 C 87.804688 57.871094 87.597656 57.582031 87.378906 57.300781 C 87.164062 57.019531 86.9375 56.742188 86.703125 56.472656 C 86.46875 56.207031 86.222656 55.945312 85.972656 55.695312 C 85.722656 55.441406 85.460938 55.199219 85.195312 54.964844 C 84.925781 54.726562 84.652344 54.503906 84.367188 54.285156 C 84.085938 54.066406 83.796875 53.859375 83.5 53.664062 C 83.203125 53.464844 82.902344 53.277344 82.59375 53.097656 C 82.285156 52.917969 81.972656 52.75 81.652344 52.59375 C 81.332031 52.4375 81.007812 52.289062 80.679688 52.152344 C 80.351562 52.015625 80.015625 51.890625 79.679688 51.777344 C 79.34375 51.660156 79 51.558594 78.65625 51.464844 C 78.3125 51.375 77.96875 51.292969 77.617188 51.222656 C 77.269531 51.152344 76.917969 51.09375 76.566406 51.050781 C 76.210938 51.003906 75.855469 50.96875 75.5 50.945312 C 75.144531 50.921875 74.789062 50.910156 74.433594 50.910156 Z M 74.433594 50.910156 " fill-opacity="1" fill-rule="evenodd"/></svg>